<?xml version="1.0" encoding="utf-8"?>
<!-- Generator: Adobe Illustrator 16.2.0, SVG Export Plug-In . SVG Version: 6.00 Build 0)  -->
<!DOCTYPE svg PUBLIC "-//W3C//DTD SVG 1.1//EN" "http://www.w3.org/Graphics/SVG/1.1/DTD/svg11.dtd">
<svg version="1.1" id="Layer_1" xmlns="http://www.w3.org/2000/svg" xmlns:xlink="http://www.w3.org/1999/xlink" x="0px" y="0px"
	 width="408.262px" height="108.965px" viewBox="0 0 408.262 108.965" enable-background="new 0 0 408.262 108.965"
	 xml:space="preserve">
<g>
	<path fill-rule="evenodd" clip-rule="evenodd" fill="#46483E" d="M60.712,57.907c0-1.177-0.619-2.259-1.635-2.843L31.991,39.477
		c-0.458-0.27-0.972-0.409-1.491-0.431c-0.047,0-0.242,0-0.28,0c-0.518,0.021-1.031,0.161-1.496,0.431L1.637,55.064
		C0.627,55.648,0,56.73,0,57.907l0.059,41.974c0,0.586,0.303,1.128,0.816,1.412c0.503,0.305,1.125,0.305,1.625,0l16.097-9.218
		c1.018-0.604,1.638-1.671,1.638-2.838V69.629c0-1.169,0.62-2.253,1.634-2.833l6.854-3.948c0.511-0.297,1.069-0.441,1.64-0.441
		c0.558,0,1.13,0.145,1.627,0.441l6.852,3.948c1.014,0.579,1.636,1.663,1.636,2.833v19.608c0,1.167,0.628,2.242,1.64,2.838
		l16.093,9.218c0.505,0.305,1.135,0.305,1.636,0c0.499-0.284,0.812-0.826,0.812-1.412L60.712,57.907z"/>
	<path fill-rule="evenodd" clip-rule="evenodd" fill="#46483E" d="M205.347,0.207c-0.507-0.282-1.125-0.275-1.627,0.019
		c-0.499,0.293-0.806,0.831-0.806,1.411v41.568c0,0.408-0.218,0.787-0.571,0.992c-0.354,0.205-0.791,0.205-1.147,0l-6.782-3.909
		c-1.014-0.583-2.26-0.583-3.27,0.001l-27.098,15.638c-1.013,0.584-1.637,1.664-1.637,2.833v31.282c0,1.17,0.624,2.249,1.636,2.835
		l27.095,15.649c1.014,0.586,2.261,0.586,3.273,0l27.101-15.649c1.012-0.586,1.635-1.665,1.635-2.835V12.062
		c0-1.186-0.641-2.279-1.678-2.858L205.347,0.207z M202.833,79.763c0,0.292-0.157,0.562-0.41,0.708l-9.304,5.36
		c-0.252,0.146-0.562,0.146-0.814,0L183,80.472c-0.254-0.146-0.41-0.416-0.41-0.708V69.02c0-0.292,0.156-0.562,0.409-0.708
		l9.303-5.374c0.255-0.146,0.564-0.146,0.819,0l9.302,5.374c0.252,0.146,0.41,0.416,0.41,0.708V79.763z"/>
	<path fill-rule="evenodd" clip-rule="evenodd" fill="#46483E" d="M302.289,68.74c1.01-0.585,1.628-1.663,1.628-2.83V58.33
		c0-1.166-0.618-2.245-1.628-2.83l-26.923-15.632c-1.012-0.588-2.263-0.589-3.277-0.004L245,55.501
		c-1.012,0.584-1.636,1.664-1.636,2.833v31.273c0,1.175,0.632,2.262,1.653,2.843l26.918,15.338c0.993,0.568,2.211,0.573,3.208,0.02
		l16.282-9.051c0.518-0.288,0.84-0.829,0.842-1.419c0.005-0.59-0.31-1.135-0.821-1.43l-27.258-15.645
		c-0.509-0.291-0.823-0.834-0.823-1.42v-9.8c0-0.584,0.312-1.125,0.819-1.417l8.484-4.892c0.505-0.291,1.128-0.291,1.633,0
		l8.488,4.892c0.507,0.293,0.819,0.833,0.819,1.417v7.711c0,0.585,0.314,1.126,0.821,1.419c0.507,0.291,1.131,0.288,1.638-0.004
		L302.289,68.74z"/>
	<path fill-rule="evenodd" clip-rule="evenodd" fill="#8CC84B" d="M109.984,39.699c1.012-0.584,2.26-0.584,3.271,0l27.093,15.635
		c1.013,0.584,1.637,1.665,1.637,2.834v31.293c0,1.169-0.624,2.249-1.636,2.834l-27.094,15.648c-1.013,0.585-2.26,0.585-3.273,0
		L82.896,92.296c-1.012-0.585-1.636-1.665-1.636-2.834V58.167c0-1.168,0.624-2.249,1.637-2.833L109.984,39.699z"/>
	<path fill="#8CC84B" d="M354.896,108.39c-0.934,0-1.862-0.244-2.68-0.717l-8.53-5.047c-1.272-0.711-0.651-0.964-0.231-1.109
		c1.7-0.591,2.043-0.727,3.857-1.755c0.188-0.108,0.438-0.065,0.635,0.047l6.552,3.891c0.238,0.133,0.573,0.133,0.792,0
		l25.548-14.746c0.237-0.136,0.391-0.407,0.391-0.689V58.779c0-0.289-0.153-0.558-0.396-0.704l-25.537-14.733
		c-0.236-0.138-0.551-0.138-0.787,0l-25.532,14.737c-0.248,0.142-0.404,0.42-0.404,0.7v29.484c0,0.282,0.156,0.548,0.402,0.682
		l6.998,4.045c3.798,1.896,6.123-0.34,6.123-2.586V61.295c0-0.411,0.331-0.736,0.742-0.736h3.239c0.405,0,0.741,0.325,0.741,0.736
		v29.109c0,5.067-2.761,7.974-7.565,7.974c-1.476,0-2.64,0-5.885-1.597l-6.699-3.859c-1.654-0.954-2.68-2.744-2.68-4.658V58.779
		c0-1.916,1.025-3.704,2.68-4.657l25.548-14.763c1.616-0.915,3.766-0.915,5.37,0l25.545,14.763c1.655,0.957,2.685,2.741,2.685,4.657
		v29.484c0,1.914-1.029,3.696-2.685,4.658l-25.545,14.751C356.769,108.146,355.842,108.39,354.896,108.39z"/>
	<path fill="#8CC84B" d="M362.787,88.077c-11.18,0-13.522-5.132-13.522-9.434c0-0.411,0.329-0.738,0.739-0.738h3.303
		c0.369,0,0.676,0.268,0.734,0.625c0.498,3.363,1.985,5.062,8.746,5.062c5.382,0,7.673-1.218,7.673-4.073
		c0-1.646-0.649-2.868-9.014-3.689c-6.99-0.689-11.313-2.236-11.313-7.828c0-5.153,4.345-8.228,11.63-8.228
		c8.184,0,12.233,2.84,12.747,8.935c0.019,0.212-0.055,0.414-0.194,0.568c-0.141,0.147-0.336,0.236-0.541,0.236h-3.316
		c-0.343,0-0.647-0.244-0.717-0.577c-0.796-3.537-2.73-4.667-7.979-4.667c-5.877,0-6.56,2.048-6.56,3.579
		c0,1.858,0.806,2.399,8.74,3.449c7.852,1.04,11.58,2.508,11.58,8.028C375.523,84.891,370.883,88.077,362.787,88.077z"/>
	<g>
		<path fill="#8CC84B" d="M398.016,39.428v0.757h-2.149v5.603h-0.867v-5.603h-2.144v-0.757H398.016z"/>
		<path fill="#8CC84B" d="M398.783,39.428h1.235l1.826,5.375l1.817-5.375h1.227v6.36h-0.822v-3.753c0-0.131,0.002-0.346,0.006-0.643
			c0.009-0.306,0.013-0.628,0.013-0.97l-1.818,5.365h-0.853l-1.833-5.365v0.191c0,0.158,0,0.395,0.01,0.717
			c0.007,0.316,0.016,0.552,0.016,0.704v3.753h-0.823V39.428z"/>
	</g>
	<path fill-rule="evenodd" clip-rule="evenodd" fill="#8CC84B" d="M273.327,67.274c0.195-0.112,0.433-0.112,0.628,0l5.199,3
		c0.195,0.113,0.314,0.318,0.314,0.543v6.005c0,0.223-0.119,0.431-0.314,0.543l-5.199,3c-0.195,0.112-0.433,0.112-0.628,0l-5.196-3
		c-0.195-0.113-0.314-0.32-0.314-0.543v-6.005c0-0.225,0.119-0.431,0.314-0.543L273.327,67.274z"/>
</g>
<g>
</g>
<g>
</g>
</svg>
